# xmcd
#
# Track frame offsets: 
#        150
#        7992
#        20307
#        43530
#        58310
#        78536
#        105976
#        118942
#        130423
#        158887
#        161373
#        173230
#        192976
#        198927
#        212325
#        234577
#        253329
#        256752
#        267048
#        267348
#        283870
#        298040
#        305301
#
# Disc length: 4498 seconds
#
# Revision: 0
# Processed by: cddbd v1.5.1PL2 Copyright (c) Steve Scherf et al.
# Submitted via: ExactAudioCopy v0.95b4
#
DISCID=45119017
DTITLE=Various Artist - The Blues Roots of Led Zeppelin
DYEAR=1900
DGENRE=Rock and Blues
TTITLE0=1. About TRB - Robert Plant
TTITLE1=2. Travelling Riverside Blues - Robert Johnson
TTITLE2=3. Travelling Riverside Blues - Led Zeppelin
TTITLE3=4. Baby Come On Home - Hoagy Lands and Bert Jansch
TTITLE4=5. Baby Come On Home (Tribute to Bert Jansch) - Led Zeppelin
TTITLE5=6. Interview w/ Chris Grant - Led Zeppelin
TTITLE6=7. Killing Floor - Howlin' Wolf
TTITLE7=8. Crosscut Saw - Albert King
TTITLE8=9. The Lemon Song - Led Zeppelin
TTITLE9=10. Recording LZ II on the Road - Robert Plant
TTITLE10=11. Bri ng It On Home - Sonny Boy Williamson
TTITLE11=12. Bring It On Home - Led Zeppelin
TTITLE12=13. Inspiration for LZ III from Wales - Robert Plant
TTITLE13=14. Gallis Pole - Leadbelly
TTITLE14=15. Gallows Pole - Led Zeppelin
TTITLE15=16. Gallows Pole - Page and Plant
TTITLE16=17. Set Expertise for the LZ Members - Robert Plant
TTITLE17=18. Keep A' Knockin' - Little Richard
TTITLE18=19. Jimmy Page
TTITLE19=20. Rock And Roll - Led Zeppelin
TTITLE20=21. When The Levee Breaks - Memphis Minnie
TTITLE21=22. LZ's Studio Techniques - John Paul Jones
TTITLE22=23. When The Levee Breaks - Led Zeppelin
EXTD=
EXTT0=
EXTT1=
EXTT2=
EXTT3=
EXTT4=
EXTT5=
EXTT6=
EXTT7=
EXTT8=
EXTT9=
EXTT10=
EXTT11=
EXTT12=
EXTT13=
EXTT14=
EXTT15=
EXTT16=
EXTT17=
EXTT18=
EXTT19=
EXTT20=
EXTT21=
EXTT22=
PLAYORDER=
